/* XPM */
static char *_438d32c98df40e4ceac2ffe0094fefe[] = {
/* columns rows colors chars-per-pixel */
"64 64 189 2 ",
"   c #070707",
".  c gray4",
"X  c #0B0B0B",
"o  c gray5",
"O  c #0E0E0E",
"+  c gray6",
"@  c #101010",
"#  c #111111",
"$  c gray7",
"%  c #131313",
"&  c gray8",
"*  c #151515",
"=  c #161616",
"-  c gray9",
";  c #181818",
":  c #191919",
">  c gray10",
",  c #1B1B1B",
"<  c gray11",
"1  c #1D1D1D",
"2  c #1E1E1E",
"3  c gray12",
"4  c #202020",
"5  c gray13",
"6  c #222222",
"7  c #232323",
"8  c gray14",
"9  c #252525",
"0  c gray15",
"q  c #272727",
"w  c #282828",
"e  c gray16",
"r  c #2A2A2A",
"t  c gray17",
"y  c #2C2C2C",
"u  c #2D2D2D",
"i  c gray18",
"p  c #2F2F2F",
"a  c gray19",
"s  c #313131",
"d  c #323232",
"f  c gray20",
"g  c #343434",
"h  c #353535",
"j  c gray21",
"k  c #373737",
"l  c gray22",
"z  c #393939",
"x  c #3A3A3A",
"c  c gray23",
"v  c #3C3C3C",
"b  c gray24",
"n  c #3E3E3E",
"m  c #3F3F3F",
"M  c gray25",
"N  c #414141",
"B  c gray26",
"V  c #434343",
"C  c #444444",
"Z  c gray27",
"A  c #464646",
"S  c gray28",
"D  c #484848",
"F  c #494949",
"G  c gray29",
"H  c #4B4B4B",
"J  c #4C4C4C",
"K  c gray30",
"L  c #4E4E4E",
"P  c gray31",
"I  c #505050",
"U  c #515151",
"Y  c gray32",
"T  c #535353",
"R  c gray33",
"E  c #555555",
"W  c #565656",
"Q  c gray34",
"!  c #585858",
"~  c gray35",
"^  c #5A5A5A",
"/  c #5B5B5B",
"(  c gray36",
")  c #5D5D5D",
"_  c gray37",
"`  c #5F5F5F",
"'  c #606060",
"]  c gray38",
"[  c #626262",
"{  c gray39",
"}  c #646464",
"|  c #656565",
" . c #676767",
".. c #686868",
"X. c DimGray",
"o. c gray42",
"O. c #6C6C6C",
"+. c #6D6D6D",
"@. c #6F6F6F",
"#. c gray44",
"$. c #717171",
"%. c #727272",
"&. c gray45",
"*. c #747474",
"=. c gray46",
"-. c #767676",
";. c #777777",
":. c gray47",
">. c #797979",
",. c gray48",
"<. c #7B7B7B",
"1. c #7C7C7C",
"2. c gray49",
"3. c #7E7E7E",
"4. c gray50",
"5. c #808080",
"6. c #818181",
"7. c gray51",
"8. c #838383",
"9. c gray52",
"0. c #868686",
"q. c gray53",
"w. c #888888",
"e. c #898989",
"r. c gray54",
"t. c #8B8B8B",
"y. c gray55",
"u. c #8D8D8D",
"i. c #8E8E8E",
"p. c gray56",
"a. c #909090",
"s. c gray57",
"d. c #939393",
"f. c gray58",
"g. c #959595",
"h. c gray59",
"j. c #979797",
"k. c #989898",
"l. c gray60",
"z. c #9A9A9A",
"x. c #9B9B9B",
"c. c #9D9D9D",
"v. c gray62",
"b. c #9F9F9F",
"n. c #A0A0A0",
"m. c gray63",
"M. c #A2A2A2",
"N. c gray64",
"B. c #A4A4A4",
"V. c #A5A5A5",
"C. c gray65",
"Z. c #A7A7A7",
"A. c gray66",
"S. c #A9A9A9",
"D. c #AAAAAA",
"F. c gray67",
"G. c #ACACAC",
"H. c gray68",
"J. c #AEAEAE",
"K. c #AFAFAF",
"L. c gray69",
"P. c #B1B1B1",
"I. c #B2B2B2",
"U. c gray70",
"Y. c #B4B4B4",
"T. c gray71",
"R. c #B6B6B6",
"E. c #B7B7B7",
"W. c gray72",
"Q. c #B9B9B9",
"!. c gray73",
"~. c #BBBBBB",
"^. c #BCBCBC",
"/. c gray74",
"(. c gray",
"). c gray75",
"_. c #C0C0C0",
"`. c #C1C1C1",
"'. c gray76",
"]. c #C3C3C3",
"[. c gray77",
"{. c #C5C5C5",
"}. c #C6C6C6",
"|. c gray78",
" X c #C8C8C8",
".X c gray79",
"XX c #CACACA",
"oX c #CBCBCB",
"OX c None",
/* pixels */
"OXOXOXOXOXOXOXOXOXOXOXOXOXOXOXOXOXOXOXOXOXOXOXOXOXOXOXOX, - - , - - , - OXOXOXOXOXOXOXOXOXOXOXOXOXOXOXOXOXOXOXOXOXOXOXOXOXOXOXOX",
"OXOXOXOXOXOXOXOXOXOXOXOXOXOXOXOXOXOXOXOXOXOXOX, - - 2 4 8 8 8 8 8 8 8 4 2 , , - - OXOXOXOXOXOXOXOXOXOXOXOXOXOXOXOXOXOXOXOXOXOXOX",
"OXOXOXOXOXOXOXOXOXOXOXOXOXOXOXOXOXOXOXOX- , 2 4 y y d g z z v v B v v z g g y t 4 2 - , OXOXOXOXOXOXOXOXOXOXOXOXOXOXOXOXOXOXOXOX",
"OXOXOXOXOXOXOXOXOXOXOXOXOXOXOXOXOXOX- , 4 y d z B T | 3.e.x.M.M.M.c.g.e.:.| K v g g t 4 , - OXOXOXOXOXOXOXOXOXOXOXOXOXOXOXOXOXOX",
"OXOXOXOXOXOXOXOXOXOXOXOXOXOXOXOX, , 8 g g B ] e.A.^.|. X X|.|.].|.|.|. X|.|.R.M.3.~ B g d 4 - , OXOXOXOXOXOXOXOXOXOXOXOXOXOXOXOX",
"OXOXOXOXOXOXOXOXOXOXOXOXOXOXOX- 8 g z F 3.A.|. X|.^.^.^.^.^.^.^.^.^.^.^.^.^.^.|. X^.M.O.Z z d 4 - OXOXOXOXOXOXOXOXOXOXOXOXOXOXOX",
"OXOXOXOXOXOXOXOXOXOXOXOXOX- , d z Z 3.R.|.].^.^.^.^.^.^.].^.^.].^.].^.^.^.^.^.^.^.].|.|.K.$.v z y , , OXOXOXOXOXOXOXOXOXOXOXOXOX",
"OXOXOXOXOXOXOXOXOXOXOXOX- 8 z v O.I.|.].^.^.^.^.^.].].^.^.].].^.].^.].^.].].^.].^.^.^.~.].|.Z._ z g 2 - OXOXOXOXOXOXOXOXOXOXOXOX",
"OXOXOXOXOXOXOXOXOXOXOX- t z F g.|.].~.^.^.].^.].^.].^.^.^.].].^.^.^.].^.].^.].].^.^.].^.^.^.|.].9.v z 8 - OXOXOXOXOXOXOXOXOXOXOX",
"OXOXOXOXOXOXOXOXOXOX- d z ~ I.|.~.^.^.].].^.].^.].^.].].].^.^.].^.].^.].^.].^.^.].^.].^.].^.^.^. XM.K z t - OXOXOXOXOXOXOXOXOXOX",
"OXOXOXOXOXOXOXOXOX- d z | ].].^.^.].^.^.^.^.].^.^.^.].^.^.].].^.^.].^.].^.^.^.].].^.^.].].^.^.].^.|.I.E z t - OXOXOXOXOXOXOXOXOX",
"OXOXOXOXOXOXOXOX- d z O.|.].^.^.].^.].].^.].^.].^.].^.].^.^.^.^.^.^.].^.].^.].^.^.^.].^.^.].^.^.].^.].~.~ z t , OXOXOXOXOXOXOXOX",
"OXOXOXOXOXOXOX- y z ..].^.^.].^.^.].^.^.].^.].^.].^.^.].^.].^.].].^.].^.].^.].^.].^.^.^.].^.].^.^.].^.].~.T z 8 - OXOXOXOXOXOXOX",
"OXOXOXOXOXOX- 8 z ~ ].].^.^.^.].].^.].^.^.].^.^.^.].].^.^.].].^.^.].^.^.^.].^.].^.].].^.^.].^.].^.^.^.^.].I.F z 2 , OXOXOXOXOXOX",
"OXOXOXOXOXOX2 z F R.].^.^.].^.^.].^.].^.^.].^.].].^.^.].].^.^.].].].^.].^.].^.^.^.].^.].^.^.^.^.^.].^.].~.|.M.v g , OXOXOXOXOXOX",
"OXOXOXOXOX- g v x. X~.].^.^.^.].^.^.^.^.^.^.].^.^.].^.^.^.].^.^.^.^.].^.].^.].^.].^.^.^.].^.].^.^.^.^.^.].^. X6.z y - OXOXOXOXOX",
"OXOXOXOX- 8 z *. X^.^.].].].].].].].|.].|.].^.^.].^.].].^.].^.].].^.^.].^.].^.^.^.^.].|.].].].].|.|.].].|.^.^.].~ z 2 , OXOXOXOX",
"OXOXOXOX, g K R.^.].A._ _ _ _ _ _ E v B z _ |.^.^.^.^.^.].^.].^.^.^.].^.^.^.].].^.|.6.~ _ _ _ _ _ Z v B v c.|.].Z.v d , OXOXOXOX",
"OXOXOX- t z e. X^.].^.T g z z z z z - + @ @ c.|.^.].].^.^.^.].^.].^.^.].].^.^.^.].I.Z g z z z z y + - . d ^.].^.|.$.z 4 - OXOXOX",
"OXOXOX, g T ^.^.^.^. Xg.z B B B B B d , 4 @ T  X^.^.^.].^.].^.].^.].^.].^.].].^. X3.g B B B B Z 8 , 2 @ 9. X^.^.].A.B d - OXOXOX",
"OXOX- 8 z 9. X^.].^.].^.T v B B v B v 2 , , , M.|.^.^.^.^.^.].^.^.].^.].^.^.^.].~.F v B B v B g , , @ d ^.].^.^.^.|.O.z 2 OXOXOX",
"OXOX, d F I.].^.^.^.~.|.e.g B v B B B y - 2 + _  X~.^.].].].^.].].^.^.^.].^.^. X9.g Z v B v B t - 2 + :. X~.].^.^.|.c.v y - OXOX",
"OXOX4 g ..|.^.].^.].^.].~.K v B v B B v , , - 2 K.|.^.^.^.].^.^.^.^.].^.^.].].^.T v B v v B z , , - 8 ~.].^.].^.^.].^.E d , OXOX",
"OX- 8 v g.|.^.^.^.].^.^. X6.g B v B v B t - , + ..oX^.^.].^.].^.].].^.].^.~.|.i.g B v B B B 8 - 2 + O. X~.^.^.].^.~. X:.z 4 OXOX",
"OX- y F I.].^.^.].].^.^.].R.Z B B B v B z 2 , - 8 I.].^.^.].^.].^.].].^.^.^.].E z B B v B v , , , 4 I.].^.^.^.].].^.|.x.v t - OX",
"OX, d _ ].^.^.].^.^.^.].~.|.*.g B v v B B t - 2 + $. X^.^.].].^.].^.^.].^. Xg.z B v v B B y - 2 + ]  X~.].^.].^.].^.].R.F d - OX",
"OX4 g *.|.^.].^.^.].].^.].].I.B B v B v B z - , - y ^.].^.^.].^.^.^.^.^.^.|._ z B B v B v 2 , - , A.|.~.^.].^.].^.^.^.]._ d , OX",
"OX4 z i. X^.^.^.].^.].^.^.^.|.O.g B B B v B 8 - 2 + 3. X~.].^.^.^.].].^.|.c.z B v B B B y , , + E  X^.].^.^.^.].^.].^. X$.g 2 OX",
"- 8 v c.|.^.^.].^.^.^.^.].^.].Z.v B v B v B z , , @ g ].^.].^.].^.].^.^.|.| z B B v B v 2 , , - M.|.^.^.^.^.].^.^.].^. X6.z 4 OX",
"- t B A.].^.].^.^.].].^.^.^.~.|...z B B v B B 8 - 2 @ e. X~.].^.].^.^.|.Z.z B v v B B d - , + K  X^.].^.].^.^.].].^.^.|.s.z 8 - ",
"- t Z K.].^.].].].^.^.].].^.^.|.M.z B v B v Z g - , @ v |.^.^.^.^.^.^. XO.g B v B v B 2 - , - g. X^.^.].^.].].^.^.^.^.|.x.v 8 - ",
"- t F I.].^.^.^.^.].].^.^.].^.].|._ z B v B v B 4 , 2 @ s.|.^.].^.].].K.B v B B v B d - 2 @ B  X^.^.^.^.].^.^.].^.].^.|.c.v 8 - ",
"- y F I.].^.].^.].^.^.].^.].^.^.|.x.z B B v v B d - , + F  X^.^.^.^. X*.g B v B B B 4 - , @ i. X^.].^.].^.].^.].^.^.^.|.c.v t - ",
"- y Z K.].^.^.].^.^.].^.^.^.].^.^.].~ z B B B B B 2 - , - c. X^.^.].I.Z B B B v B g , , @ z ].^.^.^.].^.^.].].^.^.].^.|.x.z 8 - ",
"- 8 B A.|.^.].^.].^.^.].].^.^.].^.|.s.z B v B v B y - 2 + T  X^.^.|.3.g B v v B B 8 - , @ 6. X^.].^.^.].].^.^.].].].^.|.s.z 4 - ",
"@ t v c.|.^.^.^.^.].^.].^.].].^.^.^.^.T z B B v B v 2 - , , Z.].].~.F v B B v B g , , - d ^.].^.^.].^.^.^.].^.^.^.^.^. X9.z 4 OX",
"OX8 z i.|.^.^.].^.].^.].].^.].^.].^. Xe.g B B B B B y , , + _ |.|.e.g B v v B B 8 - 2 + :. X^.].^.].^.].^.].^.].^.].^.|.*.g 2 OX",
"OX4 g :.|.^.].^.].^.^.^.^.^.^.].^.^.].~.K v B v v B v , , - 2 K.].K v B B B B z , , - 8 ~.].^.^.].^.^.].].^.].^.].^.^.].] d 2 OX",
"OX, g ] ].^.^.].^.^.].^.^.].^.^.^.].~. X6.g B B B v B t - 2 . $.x.d B v B v B t - 2 + O. X^.].^.^.^.].^.^.^.].^.^.^.^.~.K y - OX",
"OX- d F R.].^.^.].].^.].].^.].].^.^.^.].R.Z v v B B B z , , - t T z B B v B z , , - 4 I.].^.^.^.].^.^.].^.].^.].].^.|.M.v t - OX",
"OX- t z x.|.^.^.^.].^.^.].^.].^.].^.^.^. X*.g Z v B v B t - - 4 v B B v v B y - 2 + ]  X^.].^.].^.].].^.^.^.].^.^.^. X3.g 4 OXOX",
"OXOX2 g O. X^.].].^.^.].^.].^.].^.].^.].|.K.Z v B B B B g , , z B v B B B v 2 , - , Z.|.^.^.].^.].^.^.].].].^.].].^.].~ g 2 OXOX",
"OXOX, d K R.^.].^.].].^.^.].^.^.].].^.^.^.|.O.z B v B v B 8 4 B v v v B B d - 2 + E  X^.].^.^.].^.].].^.^.].^.^.^.|.M.v y - OXOX",
"OXOX@ t z e.|.~.^.].^.^.].^.].^.^.^.].^.^.|.A.v B v B B B g g B B B B v v 2 - , , c.|.^.^.^.].^.^.^.^.^.].^.^.].^.|.$.g 4 OXOXOX",
"OXOXOX, g E ].^.].^.^.].].^.^.].].^.^.].].^. X..z B v v v B v B B v B B d - 2 + F |.^.^.^.].].^.].^.].^.].^.^.^.].I.Z d , OXOXOX",
"OXOXOX- t z s.|.^.^.].^.^.].^.^.^.^.].^.^.^.|.M.z B B B B v B v v B v B 4 - , @ g.|.^.].].^.^.].^.].].^.^.].].~. X*.z 4 - OXOXOX",
"OXOXOXOX2 g T ~.].^.^.].].^.^.].].^.].^.].^.^.]._ g B B B v B B B v Z g - , @ B |.^.^.^.^.].^.^.].^.^.].].^.~.|.A.B g , OXOXOXOX",
"OXOXOXOX- t z :. X^.^.^.].^.].^.^.].^.].^.^.^.|.x.z B v B B v B v B B 4 , , @ i.|.^.].^.].^.^.].^.^.].^.^.^.^.|.] z 4 - OXOXOXOX",
"OXOXOXOXOX, g B M.|.^.^.].].^.].^.^.].^.].^.].^.].E z B B v B B B B g - 2 @ z ].^.^.^.].^.].^.].].^.^.].^.^. Xi.z y - OXOXOXOXOX",
"OXOXOXOXOXOX2 z T ~.].^.^.^.].^.].^.^.].].^.^.^.|.s.g B B v B v v B 8 - 2 + 6. X^.].^.^.^.^.].^.^.].^.^.~.|.A.B g 2 OXOXOXOXOXOX",
"OXOXOXOXOXOX- 8 z | |.^.^.].^.^.^.].].^.^.^.].^.].^.T v B B B B Z z , , - y ^.].].^.^.].].^.].^.].^.].^.].~.T z 4 - OXOXOXOXOXOX",
"OXOXOXOXOXOXOX- y z *.|.^.^.].^.].^.^.].].^.^.].~.|.e.d z z z g v 2 + - . *. X^.].^.^.].^.].^.].^.^.~.].^._ z t , OXOXOXOXOXOXOX",
"OXOXOXOXOXOXOXOX, g z :. X^.^.^.^.].^.^.^.^.].^.^.].^.x.x.x.x.x.x.s.i.i.i.~.^.^.^.^.].^.^.].^.^.].~.].^.] z y - OXOXOXOXOXOXOXOX",
"OXOXOXOXOXOXOXOXOX, g z *.|.].^.].^.^.].].].^.^.^.^.^.|.|.|.|.|.|.|. X X|.].^.].].^.^.].].^.].^.~.|.~._ z d - OXOXOXOXOXOXOXOXOX",
"OXOXOXOXOXOXOXOXOXOX, d z | ~.|.^.^.^.^.^.].^.].^.].^.^.~.^.^.^.^.^.^.^.^.^.].^.^.].].^.].^.^.^.|.K.T z y , OXOXOXOXOXOXOXOXOXOX",
"OXOXOXOXOXOXOXOXOXOXOX- d z K M. X].^.].^.^.].^.].^.].^.^.].^.].].^.].^.].^.^.].^.^.].^.^.^.].|.s.Z z t - OXOXOXOXOXOXOXOXOXOXOX",
"OXOXOXOXOXOXOXOXOXOXOXOX- 8 z B :.~.|.^.^.].].^.^.].^.].^.].^.^.^.].^.^.].].^.^.^.].^.^.].|.I...v g 4 - OXOXOXOXOXOXOXOXOXOXOXOX",
"OXOXOXOXOXOXOXOXOXOXOXOXOX- 2 g z T i.^.|.].^.^.^.^.^.^.].^.].].].^.].^.^.^.^.].^.~.]. XR.3.Z z d , , OXOXOXOXOXOXOXOXOXOXOXOXOX",
"OXOXOXOXOXOXOXOXOXOXOXOXOXOXOX, 8 g z E 9.R.|.|.].^.~.~.^.^.^.^.^.^.^.~.^.^.^.|. X|.K.3.F z g 8 - OXOXOXOXOXOXOXOXOXOXOXOXOXOXOX",
"OXOXOXOXOXOXOXOXOXOXOXOXOXOXOXOX- , t g z F ..g.I.].|.|.|.|.].].].].|.|. X|.^.K.e.| B z g 8 , - OXOXOXOXOXOXOXOXOXOXOXOXOXOXOXOX",
"OXOXOXOXOXOXOXOXOXOXOXOXOXOXOXOXOXOX- , 8 d g v F _ *.e.x.M.A.K.K.A.M.g.9.$.~ Z z g d 4 , - OXOXOXOXOXOXOXOXOXOXOXOXOXOXOXOXOXOX",
"OXOXOXOXOXOXOXOXOXOXOXOXOXOXOXOXOXOXOXOXOX, 4 8 y d g z z B Z Z Z B B v g g d t 8 2 - OXOXOXOXOXOXOXOXOXOXOXOXOXOXOXOXOXOXOXOXOX",
"OXOXOXOXOXOXOXOXOXOXOXOXOXOXOXOXOXOXOXOXOXOXOXOX- 2 4 4 8 t t t t t t 4 4 2 , - OXOXOXOXOXOXOXOXOXOXOXOXOXOXOXOXOXOXOXOXOXOXOXOX",
"OXOXOXOXOXOXOXOXOXOXOXOXOXOXOXOXOXOXOXOXOXOXOXOXOXOXOXOXOX@ - - - @ - OXOXOXOXOXOXOXOXOXOXOXOXOXOXOXOXOXOXOXOXOXOXOXOXOXOXOXOXOX"
};
