/* XPM */
static char *_b1f83ff40cb4e76e7f775582a669436[] = {
/* columns rows colors chars-per-pixel */
"16 16 106 2 ",
"   c gray10",
".  c gray11",
"X  c #1E1E1E",
"o  c gray12",
"O  c #202020",
"+  c gray13",
"@  c #222222",
"#  c #232323",
"$  c #252525",
"%  c #272727",
"&  c #282828",
"*  c #2A2A2A",
"=  c #2D2D2D",
"-  c gray18",
";  c #2F2F2F",
":  c gray19",
">  c #313131",
",  c #323232",
"<  c #353535",
"1  c #373737",
"2  c #3A3A3A",
"3  c gray23",
"4  c #3C3C3C",
"5  c #3E3E3E",
"6  c #3F3F3F",
"7  c gray25",
"8  c #414141",
"9  c gray26",
"0  c #434343",
"q  c gray27",
"w  c #464646",
"e  c gray28",
"r  c gray30",
"t  c gray31",
"y  c #505050",
"u  c #515151",
"i  c #535353",
"p  c gray33",
"a  c #555555",
"s  c gray34",
"d  c #585858",
"f  c #5B5B5B",
"g  c #5D5D5D",
"h  c gray37",
"j  c #606060",
"k  c gray38",
"l  c #626262",
"z  c #646464",
"x  c #656565",
"c  c #676767",
"v  c #6F6F6F",
"b  c #767676",
"n  c gray48",
"m  c #7C7C7C",
"M  c gray49",
"N  c #7E7E7E",
"B  c #808080",
"V  c #818181",
"C  c gray51",
"Z  c #838383",
"A  c #868686",
"S  c gray53",
"D  c #888888",
"F  c gray54",
"G  c gray55",
"H  c #8D8D8D",
"J  c gray57",
"K  c #959595",
"L  c gray59",
"P  c #989898",
"I  c #9A9A9A",
"U  c #9B9B9B",
"Y  c #9D9D9D",
"T  c gray63",
"R  c gray67",
"E  c #AEAEAE",
"W  c #AFAFAF",
"Q  c #B1B1B1",
"!  c gray70",
"~  c #B4B4B4",
"^  c gray71",
"/  c #B6B6B6",
"(  c #B7B7B7",
")  c gray72",
"_  c gray73",
"`  c #BBBBBB",
"'  c #BCBCBC",
"]  c gray74",
"[  c gray",
"{  c gray75",
"}  c #C0C0C0",
"|  c #C1C1C1",
" . c #C3C3C3",
".. c gray77",
"X. c #C5C5C5",
"o. c #C6C6C6",
"O. c gray78",
"+. c #C8C8C8",
"@. c gray79",
"#. c #CACACA",
"$. c #CBCBCB",
"%. c #CDCDCD",
"&. c #D0D0D0",
"*. c #D7D7D7",
"=. c gray85",
"-. c None",
/* pixels */
"-.-.-.-.-.X 7 u u 5 X -.-.-.-.-.",
"-.-.-.-.h L ^ } [ ^ L p -.-.-.-.",
"-.-.% C @.O.} } [ } O.O.m + -.-.",
"-.-.A *.} O.[ } [ [ } O.=.C -.-.",
"-.z ^ z p N @.) ) O.J l r E h -.",
"+ U O.p & & ) } } [ u + > @.L   ",
"w ^ @.L 7 + b @.O.G 5 X A %.Q 5 ",
"d } [ [ p > > [ } d - < } [ [ r ",
"d } [ @.D 5 X D T 3 X m @.[ [ r ",
"e ^ [ } [ r - 3 h > > ) } } ^ 7 ",
"% Y O.) @.C 3 - 7 X v %.) @.L X ",
"-.l %.) } ^ w 7 3 % Q } [ @.d -.",
"-.-.D &.) O.N 5 & c @.) &.C -.-.",
"-.-.& A @.O.[ E E [ @.@.C % -.-.",
"-.-.-.-.l U ^ O.} ^ L h -.-.-.-.",
"-.-.-.-.-.+ w p p w + -.-.-.-.-."
};
