/* XPM */
static char *_8bad28b27c8402f93a1d431be5d866e[] = {
/* columns rows colors chars-per-pixel */
"32 32 165 2 ",
"   c gray1",
".  c #090909",
"X  c gray4",
"o  c #0B0B0B",
"O  c #0C0C0C",
"+  c gray5",
"@  c #0E0E0E",
"#  c gray6",
"$  c #111111",
"%  c #131313",
"&  c gray8",
"*  c #151515",
"=  c #161616",
"-  c gray9",
";  c #181818",
":  c #191919",
">  c gray10",
",  c #1B1B1B",
"<  c gray11",
"1  c #1D1D1D",
"2  c #1E1E1E",
"3  c gray12",
"4  c #202020",
"5  c gray13",
"6  c #232323",
"7  c gray14",
"8  c #252525",
"9  c #272727",
"0  c #282828",
"q  c gray16",
"w  c #2A2A2A",
"e  c gray17",
"r  c #2C2C2C",
"t  c #2D2D2D",
"y  c gray18",
"u  c gray19",
"i  c #323232",
"p  c gray20",
"a  c #343434",
"s  c #353535",
"d  c gray21",
"f  c #373737",
"g  c gray22",
"h  c #393939",
"j  c #3A3A3A",
"k  c gray23",
"l  c #3C3C3C",
"z  c gray24",
"x  c #3E3E3E",
"c  c #3F3F3F",
"v  c gray25",
"b  c #414141",
"n  c gray26",
"m  c #434343",
"M  c #444444",
"N  c gray27",
"B  c #464646",
"V  c gray28",
"C  c #484848",
"Z  c #4B4B4B",
"A  c #4C4C4C",
"S  c gray30",
"D  c gray31",
"F  c #505050",
"G  c #515151",
"H  c gray32",
"J  c #535353",
"K  c gray33",
"L  c gray34",
"P  c #585858",
"I  c gray35",
"U  c #5A5A5A",
"Y  c gray36",
"T  c #5D5D5D",
"R  c #5F5F5F",
"E  c gray38",
"W  c #626262",
"Q  c gray39",
"!  c #646464",
"~  c #656565",
"^  c gray40",
"/  c #676767",
"(  c #686868",
")  c DimGray",
"_  c #6A6A6A",
"`  c gray42",
"'  c #6D6D6D",
"]  c gray43",
"[  c #6F6F6F",
"{  c gray44",
"}  c #717171",
"|  c #727272",
" . c gray46",
".. c #767676",
"X. c #777777",
"o. c gray47",
"O. c #797979",
"+. c gray48",
"@. c #7C7C7C",
"#. c #808080",
"$. c gray51",
"%. c #838383",
"&. c #848484",
"*. c #888888",
"=. c #898989",
"-. c gray54",
";. c #8B8B8B",
":. c #8D8D8D",
">. c #8E8E8E",
",. c gray56",
"<. c #909090",
"1. c gray57",
"2. c #929292",
"3. c gray58",
"4. c #959595",
"5. c #979797",
"6. c #989898",
"7. c #9A9A9A",
"8. c #9B9B9B",
"9. c #9D9D9D",
"0. c gray62",
"q. c #9F9F9F",
"w. c #A0A0A0",
"e. c gray63",
"r. c #A2A2A2",
"t. c gray64",
"y. c #A7A7A7",
"u. c gray66",
"i. c #A9A9A9",
"p. c #AAAAAA",
"a. c gray67",
"s. c #ACACAC",
"d. c gray68",
"f. c #AEAEAE",
"g. c gray69",
"h. c #B1B1B1",
"j. c #B2B2B2",
"k. c #B4B4B4",
"l. c gray71",
"z. c #B6B6B6",
"x. c #B7B7B7",
"c. c #B9B9B9",
"v. c gray73",
"b. c #BBBBBB",
"n. c #BCBCBC",
"m. c gray74",
"M. c gray",
"N. c gray75",
"B. c #C0C0C0",
"V. c #C1C1C1",
"C. c gray76",
"Z. c #C3C3C3",
"A. c gray77",
"S. c #C5C5C5",
"D. c #C6C6C6",
"F. c gray78",
"G. c #C8C8C8",
"H. c gray79",
"J. c #CACACA",
"K. c #CBCBCB",
"L. c gray80",
"P. c #CDCDCD",
"I. c #CECECE",
"U. c #D0D0D0",
"Y. c None",
/* pixels */
"Y.Y.Y.Y.Y.Y.Y.Y.Y.Y.Y.Y.Y.* : : * : % Y.Y.Y.Y.Y.Y.Y.Y.Y.Y.Y.Y.Y.",
"Y.Y.Y.Y.Y.Y.Y.Y.Y.Y.: 9 l K ^ { ' ^ G k 9 : Y.Y.Y.Y.Y.Y.Y.Y.Y.Y.",
"Y.Y.Y.Y.Y.Y.Y.Y.1 f ( 0.v.A.G.G.G.G.A.x.6.Q t 1 Y.Y.Y.Y.Y.Y.Y.Y.",
"Y.Y.Y.Y.Y.Y.: q ( j.G.A.B.m.m.m.m.m.m.B.G.A.d.Q 9 : Y.Y.Y.Y.Y.Y.",
"Y.Y.Y.Y.Y.: k 6.A.A.m.m.B.m.B.m.B.m.m.m.m.m.A.A.>.i : Y.Y.Y.Y.Y.",
"Y.Y.Y.Y.: m d.G.m.m.B.m.m.m.B.m.B.B.B.m.B.B.m.m.G.t.k : Y.Y.Y.Y.",
"Y.Y.Y.: l d.A.v.m.m.m.B.B.m.B.B.m.m.m.B.m.m.m.m.v.A.t.f : Y.Y.Y.",
"Y.Y.Y.t 6.I.A.A.G.G.G.m.m.B.m.B.B.B.B.B.m.A.G.G.G.G.U.*.9 Y.Y.Y.",
"Y.Y.1 ' I.0.*.>.*.+.*.B.B.m.B.B.B.m.B.m.B.3.*.>.*.+.3.G.Q : Y.Y.",
"Y.Y.k j.G.1.i k k * o 0.A.m.B.m.B.m.m.A.a.k k f 1   %.I.t.i Y.Y.",
"Y.: ' G.m.B.U k N f + D G.m.B.m.B.m.m.A.{ k N k * k A.m.A.Q : Y.",
"Y.q t.A.m.A.1.f m m 4 * t.A.m.m.B.m.B.j.m l m q o %.G.v.A.1.9 Y.",
"Y.N m.B.m.B.m.G k m f o U G.m.m.B.m.G.+.f m k % i m.B.m.B.x.f Y.",
"* T G.m.m.m.G.*.f m l 1 1 a.A.m.m.B.x.C l m q + +.G.m.m.B.A.D * ",
": { G.m.m.m.B.v.C l N t o ^ I.v.m.A.%.f m k * 9 x.B.m.B.m.G.Q * ",
": +.G.m.m.B.m.G.@.f m l : 4 j.B.m.v.D l N t o ' I.v.B.m.m.A.' * ",
": +.G.m.B.m.m.B.x.N l m t + { G.A.>.f m l 1 4 j.B.m.m.m.m.G.' : ",
": { G.m.m.B.B.m.G. .f N l * q x.B.K k m t o Q G.m.B.B.m.m.G.Q * ",
"* T G.m.m.B.B.m.B.d.m l m q o %.0.f m l 1 1 a.A.m.m.B.B.m.B.G % ",
"Y.N m.B.m.B.m.B.m.G.' f m k % f K k m i + K G.m.B.m.m.m.B.x.k Y.",
"Y.t t.A.m.m.m.m.m.A.a.l l m 4 1 l m l 4 * t.A.m.m.B.B.m.G.3.9 Y.",
"Y.:  .G.m.B.m.B.B.m.A.^ f m f f m m f + D A.m.m.B.m.B.m.G.^ : Y.",
"Y.Y.k x.B.B.B.B.B.m.A.t.k m l m l m 4 + 3.G.m.B.m.B.m.B.d.i Y.Y.",
"Y.Y.1 { G.m.m.m.m.m.m.A.T k m l m f % m A.m.m.B.B.m.m.A.^ : Y.Y.",
"Y.Y.Y.t 0.A.m.m.m.B.m.A.6.k l m l 9 + >.G.m.B.B.m.m.G.1.q Y.Y.Y.",
"Y.Y.Y.: m j.A.m.B.B.m.m.B.U k m k % k B.m.m.m.m.m.A.t.k : Y.Y.Y.",
"Y.Y.Y.Y.1 N j.G.m.m.B.m.B.x.t.d.t.t.j.B.B.B.m.m.G.a.l : Y.Y.Y.Y.",
"Y.Y.Y.Y.Y.1 l 0.G.B.m.m.m.B.A.A.A.A.B.m.m.m.B.G.3.k : Y.Y.Y.Y.Y.",
"Y.Y.Y.Y.Y.Y.: t { x.A.A.B.m.v.m.v.m.m.B.A.G.j.( q : Y.Y.Y.Y.Y.Y.",
"Y.Y.Y.Y.Y.Y.Y.Y.1 k { t.m.G.G.G.G.G.A.m.0.( f : Y.Y.Y.Y.Y.Y.Y.Y.",
"Y.Y.Y.Y.Y.Y.Y.Y.Y.Y.1 q m U '  . .' U l q : Y.Y.Y.Y.Y.Y.Y.Y.Y.Y.",
"Y.Y.Y.Y.Y.Y.Y.Y.Y.Y.Y.Y.Y.* : : : : * Y.Y.Y.Y.Y.Y.Y.Y.Y.Y.Y.Y.Y."
};
